<svg aria-hidden="true" style="position: absolute; width: 0; height: 0; overflow: hidden;" version="1.1" xmlns="http://www.w3.org/2000/svg" xmlns:xlink="http://www.w3.org/1999/xlink">
<defs>
<symbol id="icon-locate" viewBox="0 0 24 32">
<path fill="#ec1b2e" style="fill: var(--color1, #ec1b2e)" d="M11.789 32c-2.127-1.815-4.099-3.804-5.895-5.947-2.695-3.219-5.895-8.012-5.895-12.579-0.001-2.333 0.69-4.613 1.985-6.553s3.137-3.452 5.292-4.345c2.155-0.893 4.527-1.126 6.814-0.671s4.389 1.58 6.038 3.23c1.098 1.093 1.968 2.393 2.56 3.824s0.894 2.966 0.889 4.515c0 4.568-3.2 9.361-5.895 12.579-1.796 2.143-3.767 4.132-5.895 5.947zM11.789 8.421c-1.34 0-2.625 0.532-3.573 1.48s-1.48 2.233-1.48 3.573c0 1.34 0.532 2.625 1.48 3.573s2.233 1.48 3.573 1.48c1.34 0 2.625-0.532 3.573-1.48s1.48-2.233 1.48-3.573c0-1.34-0.532-2.625-1.48-3.573s-2.233-1.48-3.573-1.48z"></path>
</symbol>
<symbol id="icon-call" viewBox="0 0 32 32">
<path fill="#ec1b2e" style="fill: var(--color1, #ec1b2e)" d="M21.196 22.576l2.688-2.688c0.362-0.358 0.82-0.602 1.319-0.704s1.016-0.058 1.489 0.128l3.276 1.308c0.479 0.194 0.889 0.526 1.179 0.953s0.448 0.931 0.453 1.447v6c-0.003 0.351-0.077 0.698-0.217 1.020s-0.345 0.612-0.6 0.853c-0.256 0.241-0.557 0.428-0.887 0.549s-0.681 0.175-1.032 0.157c-22.956-1.428-27.588-20.868-28.464-28.308-0.041-0.365-0.004-0.735 0.109-1.085s0.298-0.672 0.544-0.945c0.246-0.273 0.547-0.491 0.883-0.64s0.7-0.224 1.068-0.222h5.796c0.517 0.002 1.022 0.158 1.45 0.449s0.759 0.703 0.95 1.183l1.308 3.276c0.192 0.472 0.241 0.99 0.141 1.489s-0.346 0.958-0.705 1.319l-2.688 2.688c0 0 1.548 10.476 11.94 11.772z"></path>
</symbol>
<symbol id="icon-mail" viewBox="0 0 36 32">
<path fill="#ec1b2e" style="fill: var(--color1, #ec1b2e)" d="M6 1c-1.591 0-3.117 0.632-4.243 1.757s-1.757 2.651-1.757 4.243v0.603l18 9.693 18-9.69v-0.606c0-1.591-0.632-3.117-1.757-4.243s-2.651-1.757-4.243-1.757h-24zM36 11.011l-17.289 9.309c-0.219 0.118-0.463 0.179-0.711 0.179s-0.492-0.062-0.711-0.179l-17.289-9.309v13.989c0 1.591 0.632 3.117 1.757 4.243s2.651 1.757 4.243 1.757h24c1.591 0 3.117-0.632 4.243-1.757s1.757-2.651 1.757-4.243v-13.989z"></path>
</symbol>
</defs>
</svg>
